<mxfile host="Electron" agent="Mozilla/5.0 (X11; Linux x86_64) AppleWebKit/537.36 (KHTML, like Gecko) draw.io/24.7.17 Chrome/128.0.6613.36 Electron/32.0.1 Safari/537.36" version="24.7.17">
  <diagram name="Страница — 1" id="pbI8ihReb0qu9Qxj-sd5">
    <mxGraphModel dx="697" dy="1109" grid="1" gridSize="10" guides="1" tooltips="1" connect="1" arrows="1" fold="1" page="1" pageScale="1" pageWidth="827" pageHeight="1169" math="0" shadow="0">
      <root>
        <mxCell id="0" />
        <mxCell id="1" parent="0" />
        <mxCell id="DMLDSB53OsI42jkWYfpN-102" value="" style="rounded=0;whiteSpace=wrap;html=1;" vertex="1" parent="1">
          <mxGeometry x="840" y="20" width="767" height="620" as="geometry" />
        </mxCell>
        <mxCell id="DMLDSB53OsI42jkWYfpN-86" value="&lt;div style=&quot;font-size: 20px;&quot;&gt;&amp;nbsp; | 0 1 2 3 4 5 6 7&lt;/div&gt;&lt;div&gt;--|-----------------&lt;/div&gt;0 | 0 7 7 0 0 0 0 0&lt;div style=&quot;font-size: 20px;&quot;&gt;1 |&lt;span style=&quot;background-color: initial; font-size: 20px;&quot;&gt;&amp;nbsp;7&lt;/span&gt;&lt;span style=&quot;background-color: initial; font-size: 20px;&quot;&gt;&amp;nbsp;0 1 4 0 0 0 0&lt;/span&gt;&lt;/div&gt;&lt;div style=&quot;font-size: 20px;&quot;&gt;2 |&lt;span style=&quot;background-color: initial; font-size: 20px;&quot;&gt;&amp;nbsp;7&lt;/span&gt;&lt;span style=&quot;background-color: initial; font-size: 20px;&quot;&gt;&amp;nbsp;1 0 0 5 0 9 0&lt;/span&gt;&lt;/div&gt;&lt;div style=&quot;font-size: 20px;&quot;&gt;3 |&lt;span style=&quot;background-color: initial; font-size: 20px;&quot;&gt;&amp;nbsp;0&lt;/span&gt;&lt;span style=&quot;background-color: initial; font-size: 20px;&quot;&gt;&amp;nbsp;4 0 0 0 7 0 5&lt;/span&gt;&lt;/div&gt;&lt;div style=&quot;font-size: 20px;&quot;&gt;4 |&lt;span style=&quot;background-color: initial; font-size: 20px;&quot;&gt;&amp;nbsp;0&lt;/span&gt;&lt;span style=&quot;background-color: initial; font-size: 20px;&quot;&gt;&amp;nbsp;0 5 0 0 0 1 0&lt;/span&gt;&lt;/div&gt;&lt;div style=&quot;font-size: 20px;&quot;&gt;5 |&lt;span style=&quot;background-color: initial; font-size: 20px;&quot;&gt;&amp;nbsp;&lt;/span&gt;&lt;span style=&quot;background-color: initial; font-size: 20px;&quot;&gt;0 0 0 7 0 0 2 0&lt;/span&gt;&lt;/div&gt;&lt;div style=&quot;font-size: 20px;&quot;&gt;6 |&lt;span style=&quot;background-color: initial; font-size: 20px;&quot;&gt;&amp;nbsp;&lt;/span&gt;&lt;span style=&quot;background-color: initial; font-size: 20px;&quot;&gt;0 0 9 0 1 2 0 3&lt;/span&gt;&lt;/div&gt;&lt;div style=&quot;font-size: 20px;&quot;&gt;7 |&lt;span style=&quot;background-color: initial; font-size: 20px;&quot;&gt;&amp;nbsp;&lt;/span&gt;&lt;span style=&quot;background-color: initial; font-size: 20px;&quot;&gt;0 0 0 5 0 0 3 0&lt;/span&gt;&lt;/div&gt;" style="text;html=1;align=left;verticalAlign=middle;resizable=0;points=[];autosize=1;strokeColor=none;fillColor=none;fontFamily=Courier New;fontSize=20;fontStyle=1" vertex="1" parent="1">
          <mxGeometry x="1347" y="190" width="260" height="250" as="geometry" />
        </mxCell>
        <mxCell id="DMLDSB53OsI42jkWYfpN-99" value="&lt;div style=&quot;font-size: 20px;&quot;&gt;0, 7, 7, 0, 0, 0, 0, 0&lt;/div&gt;&lt;div style=&quot;font-size: 20px;&quot;&gt;7, 0, 1, 4, 0, 0, 0, 0&lt;/div&gt;&lt;div style=&quot;font-size: 20px;&quot;&gt;7, 1, 0, 0, 5, 0, 9, 0&lt;/div&gt;&lt;div style=&quot;font-size: 20px;&quot;&gt;0, 4, 0, 0, 0, 7, 0, 5&lt;/div&gt;&lt;div style=&quot;font-size: 20px;&quot;&gt;0, 0, 5, 0, 0, 0, 1, 0&lt;/div&gt;&lt;div style=&quot;font-size: 20px;&quot;&gt;0, 0, 0, 7, 0, 0, 2, 0&lt;/div&gt;&lt;div style=&quot;font-size: 20px;&quot;&gt;0, 0, 9, 0, 1, 2, 0, 3&lt;/div&gt;&lt;div style=&quot;font-size: 20px;&quot;&gt;0, 0, 0, 5, 0, 0, 3, 0&lt;/div&gt;" style="text;html=1;align=center;verticalAlign=middle;resizable=0;points=[];autosize=1;strokeColor=none;fillColor=none;fontFamily=Courier New;fontStyle=1;fontSize=20;" vertex="1" parent="1">
          <mxGeometry x="1125" y="798" width="290" height="210" as="geometry" />
        </mxCell>
        <mxCell id="DMLDSB53OsI42jkWYfpN-100" value="" style="group" vertex="1" connectable="0" parent="1">
          <mxGeometry x="880" y="40" width="400" height="560" as="geometry" />
        </mxCell>
        <mxCell id="DMLDSB53OsI42jkWYfpN-72" value="7" style="rounded=0;orthogonalLoop=1;jettySize=auto;html=1;endArrow=none;endFill=0;strokeWidth=2;verticalAlign=bottom;fontSize=20;labelBackgroundColor=none;" edge="1" parent="DMLDSB53OsI42jkWYfpN-100" source="DMLDSB53OsI42jkWYfpN-56" target="DMLDSB53OsI42jkWYfpN-64">
          <mxGeometry relative="1" as="geometry" />
        </mxCell>
        <mxCell id="DMLDSB53OsI42jkWYfpN-73" value="7" style="rounded=0;orthogonalLoop=1;jettySize=auto;html=1;endArrow=none;endFill=0;strokeWidth=2;verticalAlign=bottom;fontSize=20;labelBackgroundColor=none;" edge="1" parent="DMLDSB53OsI42jkWYfpN-100" source="DMLDSB53OsI42jkWYfpN-56" target="DMLDSB53OsI42jkWYfpN-66">
          <mxGeometry relative="1" as="geometry" />
        </mxCell>
        <mxCell id="DMLDSB53OsI42jkWYfpN-56" value="0" style="ellipse;whiteSpace=wrap;html=1;aspect=fixed;strokeWidth=3;fontSize=25;" vertex="1" parent="DMLDSB53OsI42jkWYfpN-100">
          <mxGeometry x="181.8181818181818" width="36.36363636363636" height="36.36363636363636" as="geometry" />
        </mxCell>
        <mxCell id="DMLDSB53OsI42jkWYfpN-81" value="5" style="rounded=0;orthogonalLoop=1;jettySize=auto;html=1;edgeStyle=orthogonalEdgeStyle;curved=1;endArrow=none;endFill=0;strokeWidth=2;labelBackgroundColor=none;verticalAlign=top;fontSize=20;" edge="1" parent="DMLDSB53OsI42jkWYfpN-100" source="DMLDSB53OsI42jkWYfpN-58" target="DMLDSB53OsI42jkWYfpN-68">
          <mxGeometry x="0.0909" y="-50" relative="1" as="geometry">
            <Array as="points">
              <mxPoint x="18.18181818181818" y="541.3333333333334" />
            </Array>
            <mxPoint as="offset" />
          </mxGeometry>
        </mxCell>
        <mxCell id="DMLDSB53OsI42jkWYfpN-58" value="7" style="ellipse;whiteSpace=wrap;html=1;aspect=fixed;strokeWidth=3;fontSize=25;" vertex="1" parent="DMLDSB53OsI42jkWYfpN-100">
          <mxGeometry x="181.8181818181818" y="522.6666666666666" width="36.36363636363636" height="36.36363636363636" as="geometry" />
        </mxCell>
        <mxCell id="DMLDSB53OsI42jkWYfpN-82" value="2" style="rounded=0;orthogonalLoop=1;jettySize=auto;html=1;endArrow=none;endFill=0;strokeWidth=2;verticalAlign=top;fontSize=20;labelBackgroundColor=none;" edge="1" parent="DMLDSB53OsI42jkWYfpN-100" source="DMLDSB53OsI42jkWYfpN-59" target="DMLDSB53OsI42jkWYfpN-61">
          <mxGeometry relative="1" as="geometry" />
        </mxCell>
        <mxCell id="DMLDSB53OsI42jkWYfpN-59" value="5" style="ellipse;whiteSpace=wrap;html=1;aspect=fixed;strokeWidth=3;fontSize=25;" vertex="1" parent="DMLDSB53OsI42jkWYfpN-100">
          <mxGeometry x="90" y="392" width="36.36363636363636" height="36.36363636363636" as="geometry" />
        </mxCell>
        <mxCell id="DMLDSB53OsI42jkWYfpN-76" value="3" style="rounded=0;orthogonalLoop=1;jettySize=auto;html=1;endArrow=none;endFill=0;strokeWidth=2;verticalAlign=top;fontSize=20;labelBackgroundColor=none;" edge="1" parent="DMLDSB53OsI42jkWYfpN-100" source="DMLDSB53OsI42jkWYfpN-61" target="DMLDSB53OsI42jkWYfpN-58">
          <mxGeometry relative="1" as="geometry" />
        </mxCell>
        <mxCell id="DMLDSB53OsI42jkWYfpN-83" value="9" style="rounded=0;orthogonalLoop=1;jettySize=auto;html=1;endArrow=none;endFill=0;strokeWidth=2;fontSize=20;labelBackgroundColor=none;verticalAlign=middle;labelPosition=right;verticalLabelPosition=middle;align=left;" edge="1" parent="DMLDSB53OsI42jkWYfpN-100" source="DMLDSB53OsI42jkWYfpN-61" target="DMLDSB53OsI42jkWYfpN-64">
          <mxGeometry relative="1" as="geometry">
            <mxPoint as="offset" />
          </mxGeometry>
        </mxCell>
        <mxCell id="DMLDSB53OsI42jkWYfpN-61" value="6" style="ellipse;whiteSpace=wrap;html=1;aspect=fixed;strokeWidth=3;fontSize=25;" vertex="1" parent="DMLDSB53OsI42jkWYfpN-100">
          <mxGeometry x="271.8181818181818" y="392" width="36.36363636363636" height="36.36363636363636" as="geometry" />
        </mxCell>
        <mxCell id="DMLDSB53OsI42jkWYfpN-74" value="5" style="rounded=0;orthogonalLoop=1;jettySize=auto;html=1;endArrow=none;endFill=0;strokeWidth=2;verticalAlign=bottom;fontSize=20;labelBackgroundColor=none;" edge="1" parent="DMLDSB53OsI42jkWYfpN-100" source="DMLDSB53OsI42jkWYfpN-64" target="DMLDSB53OsI42jkWYfpN-70">
          <mxGeometry relative="1" as="geometry" />
        </mxCell>
        <mxCell id="DMLDSB53OsI42jkWYfpN-85" value="1" style="rounded=0;orthogonalLoop=1;jettySize=auto;html=1;entryX=1;entryY=0.5;entryDx=0;entryDy=0;endArrow=none;endFill=0;strokeWidth=2;verticalAlign=bottom;fontSize=20;" edge="1" parent="DMLDSB53OsI42jkWYfpN-100" source="DMLDSB53OsI42jkWYfpN-64" target="DMLDSB53OsI42jkWYfpN-66">
          <mxGeometry relative="1" as="geometry" />
        </mxCell>
        <mxCell id="DMLDSB53OsI42jkWYfpN-64" value="2" style="ellipse;whiteSpace=wrap;html=1;aspect=fixed;strokeWidth=3;fontSize=25;" vertex="1" parent="DMLDSB53OsI42jkWYfpN-100">
          <mxGeometry x="271.8181818181818" y="130.66666666666666" width="36.36363636363636" height="36.36363636363636" as="geometry" />
        </mxCell>
        <mxCell id="DMLDSB53OsI42jkWYfpN-79" value="4" style="rounded=0;orthogonalLoop=1;jettySize=auto;html=1;endArrow=none;endFill=0;strokeWidth=2;verticalAlign=bottom;fontSize=20;labelBackgroundColor=none;" edge="1" parent="DMLDSB53OsI42jkWYfpN-100" source="DMLDSB53OsI42jkWYfpN-66" target="DMLDSB53OsI42jkWYfpN-68">
          <mxGeometry relative="1" as="geometry" />
        </mxCell>
        <mxCell id="DMLDSB53OsI42jkWYfpN-66" value="1" style="ellipse;whiteSpace=wrap;html=1;aspect=fixed;strokeWidth=3;fontSize=25;" vertex="1" parent="DMLDSB53OsI42jkWYfpN-100">
          <mxGeometry x="90" y="130.66666666666666" width="36.36363636363636" height="36.36363636363636" as="geometry" />
        </mxCell>
        <mxCell id="DMLDSB53OsI42jkWYfpN-78" value="7" style="rounded=0;orthogonalLoop=1;jettySize=auto;html=1;endArrow=none;endFill=0;strokeWidth=2;verticalAlign=top;fontSize=20;labelBackgroundColor=none;" edge="1" parent="DMLDSB53OsI42jkWYfpN-100" source="DMLDSB53OsI42jkWYfpN-68" target="DMLDSB53OsI42jkWYfpN-59">
          <mxGeometry relative="1" as="geometry" />
        </mxCell>
        <mxCell id="DMLDSB53OsI42jkWYfpN-68" value="3" style="ellipse;whiteSpace=wrap;html=1;aspect=fixed;strokeWidth=3;fontSize=25;" vertex="1" parent="DMLDSB53OsI42jkWYfpN-100">
          <mxGeometry y="261.3333333333333" width="36.36363636363636" height="36.36363636363636" as="geometry" />
        </mxCell>
        <mxCell id="DMLDSB53OsI42jkWYfpN-75" value="1" style="rounded=0;orthogonalLoop=1;jettySize=auto;html=1;endArrow=none;endFill=0;strokeWidth=2;fontSize=20;labelBackgroundColor=none;verticalAlign=top;" edge="1" parent="DMLDSB53OsI42jkWYfpN-100" source="DMLDSB53OsI42jkWYfpN-70" target="DMLDSB53OsI42jkWYfpN-61">
          <mxGeometry relative="1" as="geometry" />
        </mxCell>
        <mxCell id="DMLDSB53OsI42jkWYfpN-70" value="4" style="ellipse;whiteSpace=wrap;html=1;aspect=fixed;strokeWidth=3;fontSize=25;" vertex="1" parent="DMLDSB53OsI42jkWYfpN-100">
          <mxGeometry x="363.6363636363636" y="261.3333333333333" width="36.36363636363636" height="36.36363636363636" as="geometry" />
        </mxCell>
      </root>
    </mxGraphModel>
  </diagram>
</mxfile>
